# xmcd CD database file
#
# Track frame offsets:
#	150
#	19114
#	28176
#	29903
#	44039
#	55604
#	67326
#	82986
#	87724
#	101042
#	110404
#	120601
#	146395
#	164322
#	173160
#
# Disc length: 2522 seconds
#
# Revision: 1
# Processed by: cddbd v1.5.2PL0 Copyright (c) Steve Scherf et al.
# Submitted via: CDex 1.51
#
DISCID=d609d80f
DTITLE=タイトー - DARIUS PREMIUM BOX -REBIRTH-  DISC4. G-DARIUS
DYEAR=2005
DGENRE=ゲーム音楽
TTITLE0=B･T･DUTCH
TTITLE1=NETWORK
TTITLE2=EPISODE 0
TTITLE3=G･ZERO
TTITLE4=PHAGE
TTITLE5=biophoton
TTITLE6=Dada
TTITLE7=One Down
TTITLE8=H･G･Virus
TTITLE9=invivo
TTITLE10=nonsensecodon
TTITLE11=KIMERA II
TTITLE12=Adam
TTITLE13=Duplication
TTITLE14=未来完了from7
EXTD=YEAR: 2005
EXTT0=
EXTT1=
EXTT2=
EXTT3=
EXTT4=
EXTT5=
EXTT6=
EXTT7=
EXTT8=
EXTT9=
EXTT10=
EXTT11=
EXTT12=
EXTT13=
EXTT14=
PLAYORDER=
